<svg xmlns="http://www.w3.org/2000/svg" width="20" height="18.904" viewBox="0 0 20 18.904">
  <g id="shopping-cart" transform="translate(0.204 -0.179)">
    <path id="Path_1535" data-name="Path 1535" d="M98.269,322.332a2.316,2.316,0,1,0,2.316,2.316A2.316,2.316,0,0,0,98.269,322.332Zm0,3.78a1.464,1.464,0,1,1,1.464-1.464A1.464,1.464,0,0,1,98.269,326.112Zm0,0" transform="translate(-91.789 -308.165)" fill="#1d7b58"/>
    <path id="Path_1535_-_Outline" data-name="Path 1535 - Outline" d="M98.352,327.33a2.6,2.6,0,1,1,2.6-2.6A2.6,2.6,0,0,1,98.352,327.33Zm0-4.632a2.033,2.033,0,1,0,2.033,2.033A2.035,2.035,0,0,0,98.352,322.7Zm0,3.78a1.748,1.748,0,1,1,1.748-1.748A1.75,1.75,0,0,1,98.352,326.479Zm0-2.929a1.181,1.181,0,1,0,1.181,1.181A1.183,1.183,0,0,0,98.352,323.55Z" transform="translate(-91.872 -308.248)" fill="#1d7b58"/>
    <path id="Path_1536" data-name="Path 1536" d="M3.987,4.366,3.681,2.65A2.559,2.559,0,0,0,1.608.581L.5.385a.426.426,0,1,0-.149.839l1.115.2A1.7,1.7,0,0,1,2.842,2.8l1.507,8.5a2.124,2.124,0,0,0,2.094,1.758h8.94a2.123,2.123,0,0,0,2.039-1.511l2-6.632a.961.961,0,0,0-.155-.549ZM16.609,11.3a1.268,1.268,0,0,1-1.222.907H6.448a1.271,1.271,0,0,1-1.256-1.056L4.14,5.213H18.448Zm0,0" transform="translate(0.083 0.083)" fill="#1d7b58"/>
    <path id="Path_1536_-_Outline" data-name="Path 1536 - Outline" d="M15.473,13.425H6.527a2.4,2.4,0,0,1-2.373-1.993l-1.507-8.5A1.424,1.424,0,0,0,1.5,1.782l-1.115-.2A.709.709,0,1,1,.629.19l1.111.2a2.852,2.852,0,0,1,2.3,2.3l.265,1.482H19.5l.085.12a1.191,1.191,0,0,1,.2.79l-2,6.636A2.391,2.391,0,0,1,15.473,13.425ZM.5.745a.143.143,0,0,0-.024.283l1.115.2A1.993,1.993,0,0,1,3.2,2.833l1.507,8.5a1.838,1.838,0,0,0,1.813,1.524h8.948a1.828,1.828,0,0,0,1.762-1.31l2-6.617a.777.777,0,0,0-.053-.2H3.833L3.485,2.783A2.283,2.283,0,0,0,1.641.943L.53.747ZM15.477,12.569H6.527A1.55,1.55,0,0,1,5,11.278L3.886,5.013H18.913l-1.949,6.448A1.56,1.56,0,0,1,15.477,12.569ZM4.561,5.579l.993,5.6A.986.986,0,0,0,6.527,12h8.943a.993.993,0,0,0,.95-.7L18.15,5.579Z" transform="translate(0)" fill="#1d7b58"/>
    <path id="Path_1537" data-name="Path 1537" d="M308.269,322.332a2.316,2.316,0,1,0,2.316,2.316A2.316,2.316,0,0,0,308.269,322.332Zm0,3.78a1.464,1.464,0,1,1,1.464-1.464A1.465,1.465,0,0,1,308.269,326.112Zm0,0" transform="translate(-292.849 -308.165)" fill="#1d7b58"/>
    <path id="Path_1537_-_Outline" data-name="Path 1537 - Outline" d="M308.352,327.33a2.6,2.6,0,1,1,2.6-2.6A2.6,2.6,0,0,1,308.352,327.33Zm0-4.632a2.033,2.033,0,1,0,2.033,2.033A2.035,2.035,0,0,0,308.352,322.7Zm0,3.78a1.748,1.748,0,1,1,1.748-1.748A1.75,1.75,0,0,1,308.352,326.479Zm0-2.929a1.181,1.181,0,1,0,1.181,1.181A1.183,1.183,0,0,0,308.352,323.55Z" transform="translate(-292.932 -308.248)" fill="#1d7b58"/>
  </g>
</svg>
