<svg xmlns="http://www.w3.org/2000/svg" xmlns:xlink="http://www.w3.org/1999/xlink" width="14" height="15" viewBox="0 0 14 15">
  <defs>
    <clipPath id="clip-path">
      <rect id="Rectangle_308" data-name="Rectangle 308" width="14" height="15" transform="translate(0 0)" fill="none"/>
    </clipPath>
  </defs>
  <g id="Group_49" data-name="Group 49" clip-path="url(#clip-path)">
    <path id="Path_1571" data-name="Path 1571" d="M13.91.471A.825.825,0,0,0,13.171,0H.828A.807.807,0,0,0,.1.471a.87.87,0,0,0,.064.9L4.679,8.036l.007.007v.007a1.24,1.24,0,0,1,.206.652v5.435a.851.851,0,0,0,.234.609.832.832,0,0,0,.59.254.815.815,0,0,0,.32-.065l2.53-1.014a.829.829,0,0,0,.547-.8V8.7a1.143,1.143,0,0,1,.206-.652l.007-.007L13.846,1.37a.9.9,0,0,0,.064-.9M5.653,7.312,1.539,1.246H12.46L8.346,7.319A2.4,2.4,0,0,0,7.913,8.7v4.152l-1.826.725V8.7a2.363,2.363,0,0,0-.433-1.384" transform="translate(0 0)" fill="#121b1d"/>
  </g>
</svg>
