<svg xmlns="http://www.w3.org/2000/svg" width="19" height="17.5" viewBox="0 0 19 17.5">
  <g id="Group_63369" data-name="Group 63369" transform="translate(5422.25 -1107.25)">
    <path id="Path_1910" data-name="Path 1910" d="M14,4.5h7" transform="translate(-5425 1104)" fill="none" stroke="#292d32" stroke-linecap="round" stroke-linejoin="round" stroke-width="1.5"/>
    <path id="Path_1917" data-name="Path 1917" d="M14,4.5h7" transform="translate(-5425 1114)" fill="none" stroke="#292d32" stroke-linecap="round" stroke-linejoin="round" stroke-width="1.5"/>
    <path id="Path_1911" data-name="Path 1911" d="M14,9.5h7" transform="translate(-5425 1104)" fill="none" stroke="#292d32" stroke-linecap="round" stroke-linejoin="round" stroke-width="1.5"/>
    <path id="Path_1916" data-name="Path 1916" d="M14,9.5h7" transform="translate(-5425 1114)" fill="none" stroke="#292d32" stroke-linecap="round" stroke-linejoin="round" stroke-width="1.5"/>
    <path id="Path_1914" data-name="Path 1914" d="M9.5,8.43V5.57C9.5,4.45,9.05,4,7.92,4H5.07C3.95,4,3.5,4.45,3.5,5.57V8.42C3.5,9.55,3.95,10,5.07,10H7.92C9.05,10,9.5,9.55,9.5,8.43Z" transform="translate(-5425 1104)" fill="none" stroke="#292d32" stroke-linecap="round" stroke-linejoin="round" stroke-width="1.5"/>
    <path id="Path_1915" data-name="Path 1915" d="M9.5,8.43V5.57C9.5,4.45,9.05,4,7.92,4H5.07C3.95,4,3.5,4.45,3.5,5.57V8.42C3.5,9.55,3.95,10,5.07,10H7.92C9.05,10,9.5,9.55,9.5,8.43Z" transform="translate(-5425 1114)" fill="none" stroke="#292d32" stroke-linecap="round" stroke-linejoin="round" stroke-width="1.5"/>
  </g>
</svg>
